**ABCDEFGHIJKLMNOPQRSTUVWXYZabcdefghijklmnopqrstuvwxyz**************************
**PARASOLID !"#$%&'()*+,-./:;<=>?@[\]^_`{|}~0123456789**************************
**PART1;
MC=AMD64;
MC_MODEL=Intel64 Family 6 Model 158 Stepping 10, GenuineIntel;
MC_ID=unknown;
OS=Windows_NT;
OS_RELEASE=unknown;
FRU=Parasolid Version 32.1, build 255,  1- 1-2021;
APPL=SOLIDWORKS 2021-2021166;
SITE=;
USER=unknown;
FORMAT=text;
GUISE=transmit;
KEY=J2 Motor Support;
FILE=J2 Motor Support.x_t;
DATE=Mon Jan 30 19:29:09 2023;
**PART2;
SCH=SCH_3201255_32001;
USFLD_SIZE=0;
**PART3;
**END_OF_HEADER*****************************************************************
T51 : TRANSMIT FILE created by modeller version 320125523 SCH_3201255_32001_1300
6229 0 12 34 CCCCCCI4 mesh1006 0 I8 polyline1008 0 CCCCCCCDI5 owner1040 0 CCCCCC
I13 boundary_mesh1006 0 I17 boundary_polyline1008 0 CCCA16 index_map_offset0 0 1
 dA9 index_map82 0 A17 node_id_index_map82 0 A20 schema_embedding_map82 0 A5 chi
ld12 0 A14 lowest_node_id0 0 1 dA16 mesh_offset_data206 0 Z1 1539 2 3 0 0 0 0 0
 0 1e3 1e-8 0 4 0 1 0 1 1 5 6 7 8 0 0 9 10 11 0 0 0 0 0 0 0 81 255 2 2 1513 12 1
 13 0 0 0 0 14 70 11 CI9 list_type0 0 1 uI10 notransmit0 0 1 lCCCDCCDI12 finger_
index0 0 1 dI12 finger_block1012 0 CZ3 0 4 T1 0 0 11 20 1 15 15 13 255 5 120 0 1
 0 16 0 0 17 0 52 255 6 1201 0 18 19 0 0 --.217819455465032 .0993049930778708 .0
03000000000025075 0 0 -1 .003299999999999955 .707106781186548 .707106781186547 -
1 0 0 31 255 7 1157 0 10 20 0 0 +-.217819455465032 .0993049930778708 .0030000000
00025075 0 0 -1 -1 0 0 .003299999999999955 29 255 8 325 0 11 21 0 -.112543450950
4444 .1120939383172864 0 19 8 CCCCCCCA5 owner12 0 Z9 40 0 1 17 0 22 V0 16 255 10
 1154 23 ?24 0 25 7 0 0 1 18 255 11 323 0 26 0 27 8 ?1 17 255 26 0 28 29 30 11 3
1 32 0 33 +18 27 37 0 34 11 35 36 ?1 17 34 0 37 38 39 27 40 41 0 42 -18 35 34 0
 43 27 44 45 ?1 29 36 39 0 27 45 46 -.151435240745465 .147211619716271 .0127 29
 45 36 0 35 47 36 -.224169455465032 .1277225456200514 .0127 29 46 94 0 48 36 49
 -.129246532787416 .0745705376562122 0 18 48 83 0 50 51 52 46 ?1 29 49 93 0 51 4
6 53 -.211469455465032 .0463049930778709 0 18 51 82 0 54 55 48 49 ?1 29 53 92 0
 55 49 56 -.224169455465032 .0463049930778709 0 18 55 81 0 57 58 51 53 ?1 29 56
 91 0 58 53 21 -.224169455465032 .1277225456200514 0 18 58 80 0 59 60 55 56 ?1 2
9 21 90 0 60 56 8 -.151435240745465 .147211619716271 0 18 60 79 0 40 61 58 21 ?1
 17 40 0 62 63 64 60 34 41 0 39 +18 61 25 0 65 66 60 67 ?1 17 65 0 68 69 70 61 7
1 72 0 73 +18 66 28 0 74 44 61 75 ?1 29 67 27 0 61 76 75 -.129246532787416 .0745
705376562122 .0127 29 76 294 0 77 78 67 -.103633291463055 .1089189383172864 .012
7 29 75 30 0 66 67 47 -.211469455465032 .0463049930778709 .0127 29 47 33 0 44 75
 45 -.224169455465032 .0463049930778709 .0127 18 44 31 0 79 35 66 47 ?1 17 79 0
 80 81 82 44 57 83 0 84 -15 255 80 102 0 82 85 0 17 81 0 80 59 79 35 84 86 0 87
 +17 82 0 80 79 59 55 88 89 0 90 -17 57 0 91 92 93 55 79 83 0 82 +16 83 97 94 ?5
7 95 96 97 0 0 1 17 84 0 98 99 87 44 81 86 0 93 -15 98 4 0 100 16 101 17 99 0 98
 102 84 66 93 103 0 104 -17 87 0 98 84 42 35 64 105 0 0 -16 86 17 106 ?81 105 10
3 107 0 0 1 17 93 0 91 57 74 44 99 103 0 0 +15 91 104 0 92 108 0 17 74 0 91 93 9
2 66 54 96 0 99 -16 103 13 109 ?93 86 110 111 0 0 1 81 2 109 1394 112 103 0 0 11
3 114 0 0 16 110 9 115 ?104 103 116 117 0 0 1 30 255 111 15 0 103 117 107 0 +-.2
11469455465032 .0463049930778709 .0127 -1 -546369598732853e-30 0 30 117 11 0 110
 118 111 0 +-.129246532787416 .0745705376562122 .0127 -.945681596344062 -.325094
3222145635 0 30 107 19 0 86 111 119 0 +-.224169455465032 .0463049930778709 .0127
 0 1 0 30 119 23 0 105 107 120 0 +-.224169455465032 .1277225456200514 .0127 .965
925826289069 .258819045102518 0 16 105 21 121 ?64 122 86 119 0 0 1 31 120 89 0 1
23 119 124 0 +-.1416001170315694 .1105064383172864 0 0 0 -1 -1 0 0 .038 16 123 7
5 125 ?126 127 128 120 128 128 1 30 124 88 0 127 120 129 0 +-.129246532787416 .0
745705376562122 0 -.945681596344062 -.3250943222145635 0 16 127 71 130 ?131 132
 123 124 0 0 1 30 129 87 0 132 124 133 0 +-.211469455465032 .0463049930778709 0
 -1 -546369598732853e-30 0 16 132 67 134 ?90 89 127 129 0 0 1 30 133 86 0 89 129
 135 0 +-.224169455465032 .0463049930778709 0 0 1 0 16 89 63 136 ?88 137 132 133
 0 0 1 30 135 85 0 137 133 138 0 +-.224169455465032 .1277225456200514 0 .9659258
26289069 .258819045102518 0 16 137 59 139 ?140 72 89 135 0 0 1 30 138 115 0 41 1
35 141 0 +-.151435240745465 .147211619716271 .0127 0 0 -1 16 41 95 114 ?40 142 9
5 138 0 0 1 30 141 116 0 95 138 97 0 +-.224169455465032 .1277225456200514 .0127
 0 0 -1 16 95 96 143 ?59 41 83 141 0 0 1 30 97 117 0 83 141 144 0 +-.22416945546
5032 .0463049930778709 .0127 0 0 -1 30 144 118 0 96 97 145 0 +-.211469455465032
 .0463049930778709 .0127 0 0 -1 16 96 98 146 ?54 83 122 144 0 0 1 30 145 119 0 1
22 144 147 0 +-.129246532787416 .0745705376562122 .0127 0 0 -1 16 122 99 148 ?69
 96 105 145 0 0 1 30 147 328 0 142 145 149 0 +-.1125434509504444 .11209393831728
64 .0127 0 0 -1 16 142 326 150 ?33 151 41 147 0 0 1 38 12 CCCCCCCCCCCA17 interse
ction_data204 0 Z149 970 0 152 147 153 0 +154 155 156 157 157 158 16 152 1023 15
9 ?160 161 162 149 0 0 1 38 153 981 0 151 149 163 0 +154 164 165 166 167 168 51
 255 154 114 0 169 170 171 172 +-.1416001170315694 .1105064383172864 .0127 0 0 -
1 .038 -1 0 0 51 155 1084 0 173 174 175 176 +-.108633291463055 .0841425073072396
 .00635 0 -1 0 .0032 0 0 -1 40 255 22 156 0 1 22 .000803583285825785 .3877966509
341525 ??-.108633291463055 .1294058671958304 .00315 -.1103419209675114 .13211488
98772874 .00364434199934639 -.1109792718405518 .1330089679481466 .00417367831688
428 -.1115306206873762 .1337405810732944 .00499151431148721 -.111760419233859 .1
340349834346822 .00567097724260147 -.1118319471125262 .134125415002803 .00644274
716224812 -.1117407600423834 .1340100295363396 .00711396271406782 -.111526839400
2202 .1337356865295682 .00771652125315578 -.1110328911035914 .13308175003314 .00
846705492728382 -.1101150553089338 .1317829720650996 .00918626090214673 -.108549
3138519904 .129258622435003 .00954889789784545 -.106502606788005 .12507231538332
34 .00873750556345067 -.1060122823275916 .123829576877039 .00818584070981621 -.1
05605364254713 .1226874798381496 .0073852085881516 -.105485389950038 .1223270342
340118 .00692507918093578 -.105440883751457 .122190181236164 .0065703020720081 -
.105437574182112 .1221799337090342 .00618449755203456 -.1054701026145534 .122280
2252283114 .00586602034266287 -.105573423493688 .122592684745669 .00541340616591
643 -.10587082321559 .1234454322276108 .00473483153146562 -.1071167268443904 .12
6471894815576 .003532193804142075 -.108633291463055 .1294058671958304 .00315 41
 3 CI8 term_use0 0 1 cCZ1 157 H?-.108633291463055 .1294058671958304 .00315 204 2
 17 INTERSECTION_DATA17 Intersection data7 uv_type0 0 1 u6 values0 1 1 fT88 158
 4 2.621047231641695 .00955 0 -.0452633598885908 2.53673685776958 .0090556580006
5361 5.71992377194783 -.0479723825700479 2.50784126267794 .00852632168311572 5.4
6028872729953 -.0488664606409069 2.48373272512417 .00770848568851279 5.150828144
1931 -.0495980737660549 2.47390451775743 .00702902275739853 4.92620914799802 -.0
498924761274426 2.470870304248195 .00625725283775188 4.68340143275335 -.04998290
76955635 2.474740507438615 .00558603728593218 4.47132255746415 -.049867522229100
1 2.483895489273275 .00498347874684422 4.27117456879897 -.0495931792223286 2.505
46230059148 .004232945072716185 3.989465600783305 -.0489392427259005 2.547316949
64547 .00351373909785327 3.62302727503148 -.04764046475786 2.625507995212215 .00
3151102102154555 3.115346636959715 -.0451161151277635 2.748212519024975 .0039624
9443654933 2.41297493038998 -.04092980807608375 2.783371447284975 .0045141592901
8379 2.181812687141105 -.0396870695697993 2.815278652176565 .0053147914118484 1.
900225219396765 -.03854497253090995 2.825275745564925 .00577492081906422 1.75149
025183668 -.03818452692677215 2.829062803409905 .0061296979279919 1.639695222534
305 -.03804767392892445 2.829346190450705 .00651550244796544 1.5190537265142 -.0
3803742640179455 2.82657159072069 .00683397965733713 1.41897005912254 -.03813771
79210718 2.817911063564845 .00728659383408357 1.273762127853246 -.03845017743842
925 2.79414420110507 .00796516846853438 1.04171539829595 -.03930292492037125 2.7
0798910376286 .00916780619585792 .493744462385595 -.04232938750833635 2.62104723
1641695 .00955 4336808689942e-27 -.0452633598885908 14 255 173 1040 177 ?178 179
 180 5 155 -179 179 178 179 22 50 255 174 1085 0 178 164 155 0 +-.10543329146305
5 .0959189383172865 .00635 0 1 0 0 0 1 51 175 877 0 181 155 182 0 +-.21781945546
5032 .0533049930778708 0 0 0 -1 .0033 -1 0 0 141 255 176 149 183 183 155 141 183
 184 176 176 155 38 184 1089 0 161 185 186 0 +154 155 187 188 189 190 16 161 102
1 191 ?192 193 152 184 0 0 1 31 185 1091 0 162 194 184 0 +-.108633291463055 .095
9189383172865 .00635 0 -1 0 0 0 -1 .0032 31 186 1088 0 193 184 195 0 +-.10863329
1463055 .1120939383172864 .00635 0 1 0 0 0 1 .0032 40 10 187 0 1 10 .00023016165
9190135 .373159914040521 ??-.1065115883683438 .0959189383172865 .003954509240699
625 -.1058739423046244 .0975588347019527 .00472950864801129 -.1056530621245762 .
0981853489371377 .00518456742362728 -.105482102131288 .0986958921968459 .0057932
1835935304 -.105440446488395 .0988240487411304 .00613612861858472 -.105437147664
0016 .0988342642901241 .00650705036063026 -.1054688827625474 .098736395403301 .0
0682593862645634 -.10557004468134 .09843026812814 .00727548320044873 -.105860466
5291324 .0975960788349305 .00794732335042656 -.1065115883683438 .095918938317286
5 .00874549075930038 41 1 188 L?-.1065115883683438 .0959189383172865 .0039545092
40699625 41 1 189 L?-.1065115883683438 .0959189383172865 .00874549075930038 204
 40 190 4 3.53558894867929 .00874549075930037 .72486209840908 -.0117764310100469
4 3.489282087069905 .00797049135198871 1.039787452688824 -.0134163273947131 3.47
18000151197 .00751543257637272 1.198025154240654 -.01404284162989806 3.457631300
09657 .00690678164064696 1.395911966744736 -.01455338488960634 3.454085076689075
 .00656387138141528 1.503911662514955 -.0146815414338908 3.453802577351705 .0061
9294963936974 1.61989428811891 -.01469175698288448 3.456510092535865 .0058740613
7354366 1.720081021148145 -.01459388809606142 3.464994568582255 .005424516799551
27 1.86420145070124 -.0142877608209004 3.488239795051685 .00475267664957344 2.09
34295186701 -.01345357152769092 3.53558894867929 .003954509240699625 2.416730555
180715 -.01177643101004694 16 193 1020 196 ?197 198 161 186 0 0 1 31 195 1087 0
 198 186 199 0 +-.108633291463055 .1089189383172864 .00635 1470734552998514e-30
 -1 0 1 1470734552998514e-30 0 .0032 16 198 1019 200 ?201 202 193 195 0 0 1 31 1
99 878 0 202 195 203 0 +-.217819455465032 .0533049930778708 .0127 0 0 -1 -1 0 0
 .0033 16 202 859 204 ?205 206 198 199 0 0 1 31 203 834 0 206 199 207 0 +-.21781
9455465032 .0763049930778708 .0127 0 0 -1 -1 0 0 .00329999999999994 16 206 815 2
08 ?209 210 202 203 0 0 1 31 207 790 0 210 203 211 0 +-.217819455465032 .0993049
930778708 .0127 0 0 -1 -1 0 0 .00329999999999994 16 210 771 212 ?213 214 206 207
 0 0 1 31 211 721 0 214 207 215 0 +-.1179781170315694 .0868844383172865 .0127 0
 0 1 1 0 0 .002249999999999975 16 214 700 216 ?217 218 210 211 0 0 1 31 215 720
 0 218 211 219 0 +-.1179781170315694 .0868844383172865 -1734723475976805e-33 0 0
 1 1 0 0 .002249999999999975 16 218 701 220 ?221 222 214 215 0 0 1 31 219 675 0
 222 215 223 0 +-.1652221170315695 .0868844383172865 .0127 0 0 1 1 0 0 .00224999
9999999975 16 222 654 224 ?225 226 218 219 0 0 1 31 223 674 0 226 219 227 0 +-.1
652221170315695 .0868844383172865 -1734723475976805e-33 0 0 1 1 0 0 .00224999999
9999975 16 226 655 113 ?228 229 222 223 0 0 1 31 227 629 0 229 223 230 0 +-.1652
221170315695 .1341284383172864 .0127 0 0 1 1 0 0 .002249999999999975 16 229 608
 231 ?232 233 226 227 0 0 1 31 230 628 0 233 227 234 0 +-.1652221170315695 .1341
284383172864 -1734723475976805e-33 0 0 1 1 0 0 .002249999999999975 16 233 609 23
5 ?236 237 229 230 0 0 1 31 234 583 0 237 230 238 0 +-.1179781170315694 .1341284
383172864 .0127 0 0 1 1 0 0 .002249999999999975 16 237 562 239 ?240 241 233 234
 0 0 1 31 238 582 0 241 234 242 0 +-.1179781170315694 .1341284383172864 -1734723
475976805e-33 0 0 1 1 0 0 .002249999999999975 16 241 563 243 ?244 245 237 238 0
 0 1 31 242 513 0 245 238 246 0 +-.192169455465032 .0897225456200515 .0127 0 0 1
 1 0 0 .003 16 245 492 247 ?248 249 241 242 0 0 1 31 246 512 0 249 242 250 0 +-.
192169455465032 .0897225456200515 -1734723475976805e-33 0 0 1 1 0 0 .003 16 249
 493 251 ?252 32 245 246 0 0 1 31 250 404 0 32 246 253 0 +-.1416001170315694 .11
05064383172864 -1734723475976805e-33 0 0 -1 -1 0 0 .0291 16 32 361 254 ?26 255 2
49 250 0 0 1 31 253 403 0 255 250 256 0 +-.1416001170315694 .1105064383172864 .0
127 0 0 -1 -1 0 0 .0291 16 255 354 257 ?258 259 32 253 0 0 1 30 256 396 0 259 25
3 260 0 --.1125434509504444 .1089189383172864 .0127 0 0 -1 16 259 353 261 ?262 2
63 255 256 0 0 1 30 260 292 0 264 256 265 0 +-.103633291463055 .1120939383172864
 0 -1 0 0 16 264 228 266 ?267 268 269 260 0 0 1 30 265 290 0 268 260 270 0 +-.11
30692483320362 .1089189383172864 0 1 1470734552998514e-30 0 16 268 335 271 ?272
 273 264 265 0 0 1 30 270 288 0 263 265 274 0 +-.103633291463055 .11209393831728
64 .0127 -1 0 0 16 263 235 275 ?276 269 259 270 0 0 1 30 274 286 0 269 270 277 0
 +-.1130692483320362 .1089189383172864 .0127 1 1470734552998514e-30 0 16 269 332
 278 ?279 264 263 274 0 0 1 30 277 285 0 280 274 281 0 +-.103633291463055 .10891
89383172864 0 0 0 1 16 280 223 282 ?70 128 273 277 0 0 1 30 281 282 0 273 277 11
8 0 +-.103633291463055 .1120939383172864 0 0 0 1 16 273 219 283 ?284 280 268 281
 0 0 1 31 118 7 0 116 281 117 0 +-.1416001170315694 .1105064383172864 .0127 0 0
 -1 -1 0 0 .038 16 116 5 285 ?38 110 72 118 72 72 1 81 2 285 1415 112 116 0 0 28
6 208 0 0 17 38 0 37 287 34 288 42 116 0 0 +16 72 190 289 ?65 116 137 118 116 11
6 1 81 2 289 1425 112 72 0 0 134 216 0 0 80 255 2 112 290 291 9000 0 0 0 0 3 6 0
 0 0 FFFFFFTFFFFFFF9 1 81 2 134 1424 112 132 0 0 143 289 0 0 81 2 216 1426 112 2
14 0 0 289 150 0 0 81 2 150 1427 112 142 0 0 216 94 0 0 81 2 94 1428 112 83 0 0
 150 191 0 0 81 2 191 1429 112 161 0 0 94 275 0 0 81 2 275 1430 112 263 0 0 191
 196 0 0 81 2 196 1431 112 193 0 0 275 292 0 0 81 2 292 1432 112 128 0 0 196 293
 0 0 16 128 171 292 ?50 123 280 120 123 123 1 81 2 293 1433 112 294 0 0 292 0 0
 0 16 294 1136 293 ?295 296 297 298 0 0 1 17 295 0 299 295 295 0 300 294 0 0 +16
 296 1142 301 ?302 25 294 303 0 0 1 16 297 1130 304 ?305 294 306 307 0 0 1 31 29
8 1139 0 294 307 303 0 --.217819455465032 .0763049930778708 0 0 0 -1 -1 0 0 .006
30000000002504 31 307 1133 0 297 308 298 0 --.217819455465032 .0993049930778708
 0 0 0 -1 -1 0 0 .00630000000002504 31 303 1145 0 296 298 20 0 --.21781945546503
2 .0533049930778708 0 0 0 -1 -1 0 0 .00630000000002506 31 20 1151 0 25 303 7 0 +
-.217819455465032 .0763049930778708 .003000000000025075 0 0 -1 -1 0 0 .003299999
999999955 16 25 1148 309 ?310 10 296 20 0 0 1 81 2 309 1379 112 25 0 0 0 235 0 0
 17 310 0 311 310 310 0 312 25 0 0 +15 311 1149 0 310 313 314 17 312 0 315 312 3
12 0 310 25 0 0 -15 315 1183 0 312 316 0 14 316 1181 317 ?18 318 319 5 19 +0 0 1
8 318 22 81 1 317 1515 320 316 321 0 177 322 323 14 18 1194 322 ?0 316 324 5 6 +
0 0 0 316 22 14 318 1168 325 ?316 326 327 5 171 +0 0 316 326 22 15 319 1182 0 30
0 316 315 52 19 1188 0 316 171 6 0 --.217819455465032 .0763049930778708 .0030000
00000025075 0 0 -1 .003299999999999955 .707106781186548 .707106781186547 -1 0 0
 13 22 41 0 0 0 0 0 0 9 16 14 16 487 328 ?329 0 330 5 331 -0 0 329 0 22 81 1 328
 1518 320 16 332 0 325 333 334 14 329 480 333 ?335 16 336 5 337 +0 0 335 16 22 1
5 330 848 0 205 16 338 50 331 3 0 16 339 337 0 +-.1416001170315694 .110506438317
2864 .0127 0 0 -1 -1 0 0 50 339 277 0 340 341 331 0 +-.103633291463055 .11209393
83172864 0 0 1 0 0 0 1 50 337 84 0 329 331 342 0 +-.1416001170315694 .1105064383
172864 0 0 0 -1 -1 0 0 50 342 110 0 343 337 344 0 +-.224169455465032 .1277225456
200514 .0127 -.258819045102518 .965925826289069 0 -.965925826289069 -.2588190451
02518 0 14 343 101 345 ?85 169 62 5 342 +0 0 85 169 22 50 344 111 0 85 342 346 0
 +-.224169455465032 .0463049930778709 .0127 -1 0 0 0 0 1 14 85 103 347 ?108 343
 80 5 344 +0 0 108 343 22 50 346 112 0 108 344 170 0 +-.211469455465032 .0463049
930778709 .0127 546369598732853e-30 -1 0 1 546369598732853e-30 0 14 108 105 348
 ?349 85 91 5 346 +0 0 349 85 22 50 170 113 0 349 346 154 0 +-.129246532787416 .
0745705376562122 .0127 .3250943222145635 -.945681596344062 0 .945681596344062 .3
250943222145635 0 14 349 107 350 ?351 108 352 5 170 +0 0 351 108 22 81 1 350 152
3 320 349 353 0 348 354 355 14 351 256 354 ?340 349 356 5 341 -0 0 340 349 22 15
 352 106 0 357 349 0 17 357 0 352 73 54 48 131 127 0 0 -17 73 0 352 104 357 61 6
9 122 0 102 -17 54 0 352 357 104 51 74 96 0 92 +17 131 0 358 90 50 51 357 127 0
 0 +15 358 342 0 31 329 359 17 90 0 358 88 131 55 92 132 0 0 +17 50 0 358 131 27
2 48 360 128 0 69 +17 272 0 358 50 31 52 361 268 0 362 +17 360 0 68 70 69 52 50
 128 0 0 -17 69 0 68 360 65 48 73 122 0 357 +15 68 211 0 70 335 0 17 70 0 68 65
 360 77 362 280 0 71 +14 335 208 363 ?169 329 364 5 154 +169 169 169 329 22 81 1
 363 1525 320 335 365 0 354 366 367 14 169 109 366 ?343 335 368 5 154 +335 335 3
43 335 22 15 364 993 0 369 335 68 17 369 0 364 370 371 372 192 161 0 0 -17 370 0
 364 373 369 374 375 376 0 0 -17 371 0 364 369 373 377 378 379 0 0 -18 372 1027
 0 375 377 0 380 ?1 17 192 0 180 381 381 377 369 161 0 382 +15 180 1043 0 192 17
3 383 17 381 0 180 192 192 372 382 162 0 369 +18 377 1031 0 192 374 372 384 ?1 1
7 382 0 385 378 375 377 381 162 0 371 -15 385 1075 0 375 178 0 17 378 0 385 386
 382 387 371 379 0 388 +17 375 0 385 382 386 372 370 376 0 381 +16 162 1025 389
 ?381 152 390 185 0 0 1 81 2 389 1404 112 162 0 0 121 130 0 0 16 390 1026 391 ?3
86 162 0 194 0 0 1 81 2 391 1392 112 390 0 0 212 113 0 0 17 386 0 385 375 378 37
4 388 390 0 370 +31 194 1092 0 390 0 185 0 +-.108633291463055 .0959189383172865
 .00635 0 -1 0 0 0 -1 .0056 18 374 1030 0 392 387 377 393 ?1 17 388 0 394 392 39
2 387 386 390 0 0 -15 394 1079 0 388 326 0 17 392 0 394 388 388 374 373 151 0 38
6 +18 387 1028 0 373 395 374 396 ?1 17 373 0 364 371 370 387 392 151 0 378 -18 3
95 369 0 30 397 387 398 ?1 29 396 1095 0 387 393 398 -.1065115883683438 .0959189
383172865 .0115325067272406 29 393 1096 0 374 384 396 -.1065115883683438 .095918
9383172865 .0011674932727594 29 398 411 0 395 396 399 -.1125434509504444 .108918
9383172864 -1734723475976805e-33 29 399 408 0 397 398 400 -.1125434509504444 .11
20939383172864 .0127 18 397 370 0 29 401 395 399 ?1 29 400 407 0 401 399 402 -.1
125434509504444 .1089189383172864 .0127 18 401 365 0 403 288 397 400 ?1 29 402 3
01 0 404 400 405 -.103633291463055 .1120939383172864 0 18 404 250 0 406 52 77 40
2 ?1 29 405 298 0 52 402 78 -.103633291463055 .1089189383172864 0 18 52 244 0 27
2 48 404 405 ?1 29 78 297 0 288 405 76 -.103633291463055 .1120939383172864 .0127
 18 288 245 0 284 77 401 78 ?1 17 284 0 407 276 406 288 287 273 0 408 +18 77 247
 0 279 404 288 76 ?1 17 279 0 409 362 262 77 100 269 0 70 +15 409 259 0 361 351
 0 17 362 0 409 361 279 52 70 280 0 360 -17 262 0 409 279 361 401 30 259 0 100 +
17 100 0 98 258 71 401 279 269 0 0 -17 258 0 98 408 100 397 403 255 0 276 +17 71
 0 98 100 102 77 65 72 0 0 -17 102 0 98 71 99 61 104 110 0 0 -17 104 0 352 54 73
 66 102 110 0 0 +17 408 0 98 42 258 288 276 263 0 38 -17 403 0 28 30 29 401 258
 255 0 262 -17 276 0 407 33 284 397 408 263 0 0 +15 407 267 0 276 340 0 17 33 0
 407 406 276 11 29 142 0 267 +17 406 0 407 284 33 404 267 264 0 287 -17 29 0 28
 403 26 397 33 142 0 258 -17 267 0 358 31 126 11 406 264 0 0 +17 31 0 358 272 26
7 395 26 32 0 361 -17 126 0 358 267 140 404 39 123 0 0 +17 140 0 358 126 88 60 6
3 137 0 0 +17 39 0 37 34 287 60 126 123 0 140 -15 37 206 0 287 169 0 17 287 0 37
 39 38 404 284 273 0 126 -17 88 0 358 140 90 58 82 89 0 63 +17 63 0 62 43 40 58
 140 137 0 0 -15 62 100 0 63 343 0 17 43 0 62 64 63 35 59 95 0 81 -17 64 0 62 40
 43 27 87 105 0 0 +17 59 0 80 82 81 58 43 95 0 88 +17 361 0 409 262 362 395 272
 268 0 0 -15 28 375 0 26 410 0 14 410 373 411 ?412 340 28 5 413 -0 0 412 340 22
 81 1 411 1527 320 410 414 0 366 415 416 14 412 502 415 ?417 410 418 5 419 -0 0
 417 410 22 14 340 264 420 ?410 351 421 5 339 -0 0 410 351 22 51 413 393 0 410 4
19 341 0 +-.1416001170315694 .1105064383172864 .0127 0 0 -1 .0291 -1 0 0 51 419
 511 0 412 422 413 0 +-.192169455465032 .0897225456200515 .0127 0 0 1 .003 1 0 0
 50 341 279 0 351 413 339 0 +-.1130692483320362 .1089189383172864 0 147073455299
8514e-30 -1 0 1 1470734552998514e-30 0 51 422 581 0 417 423 419 0 +-.11797811703
15694 .1341284383172864 .0127 0 0 1 .002249999999999975 1 0 0 14 417 572 424 ?42
5 412 426 5 422 -0 0 425 412 22 51 423 627 0 425 427 422 0 +-.1652221170315695 .
1341284383172864 .0127 0 0 1 .002249999999999975 1 0 0 14 425 618 428 ?429 417 4
30 5 423 -0 0 429 417 22 51 427 673 0 429 431 423 0 +-.1652221170315695 .0868844
383172865 .0127 0 0 1 .002249999999999975 1 0 0 14 429 664 432 ?433 425 434 5 42
7 -0 0 433 425 22 51 431 719 0 433 435 427 0 +-.1179781170315694 .08688443831728
65 .0127 0 0 1 .002249999999999975 1 0 0 14 433 710 436 ?437 429 438 5 431 -0 0
 437 429 22 51 435 789 0 437 182 431 0 +-.217819455465032 .0993049930778708 0 0
 0 -1 .003299999999999955 -1 0 0 14 437 780 439 ?313 433 440 5 435 -0 0 313 433
 22 51 182 833 0 313 175 435 0 +-.217819455465032 .0763049930778708 0 0 0 -1 .00
3299999999999955 -1 0 0 14 313 824 441 ?181 437 311 5 182 -0 0 181 437 22 81 1 4
41 1535 320 313 442 0 439 443 444 14 181 868 443 ?179 313 445 5 175 -0 0 179 313
 22 81 1 443 1536 320 181 446 0 441 447 448 14 179 1045 447 ?173 181 449 5 155 -
173 173 173 181 22 15 445 1125 0 450 181 451 17 450 0 445 450 450 0 452 306 0 0
 +15 451 871 0 453 181 0 17 453 0 451 453 453 0 205 202 0 0 -17 205 0 330 205 20
5 0 453 202 0 0 +17 452 0 454 452 452 0 450 306 0 0 -16 306 1124 455 ?450 297 37
6 308 0 0 1 81 2 455 1400 112 306 0 0 204 146 0 0 16 376 990 286 ?375 306 379 16
3 379 379 1 31 308 1127 0 306 163 307 0 +-.217819455465032 .0533049930778708 .00
300000000002506 0 0 -1 -1 0 0 .0033 30 163 988 0 379 153 308 0 --.10651158836834
38 .0959189383172865 .0127 0 0 -1 16 379 986 456 ?378 376 151 163 376 376 1 81 2
 456 1397 112 379 0 0 254 266 0 0 16 151 979 457 ?392 379 142 153 0 0 1 81 2 457
 1410 112 151 0 0 220 125 0 0 81 2 220 1409 112 218 0 0 283 457 0 0 81 2 125 141
1 112 123 0 0 457 247 0 0 81 2 247 1412 112 245 0 0 125 200 0 0 81 2 200 1413 11
2 198 0 0 247 286 0 0 81 2 286 1414 112 376 0 0 200 285 0 0 81 2 283 1408 112 27
3 0 0 106 220 0 0 81 2 106 1407 112 86 0 0 304 283 0 0 81 2 304 1406 112 297 0 0
 130 106 0 0 81 2 130 1405 112 127 0 0 389 304 0 0 81 2 254 1396 112 32 0 0 114
 456 0 0 81 2 266 1398 112 264 0 0 456 204 0 0 81 2 204 1399 112 202 0 0 266 455
 0 0 81 2 114 1395 112 41 0 0 109 254 0 0 81 2 146 1401 112 96 0 0 455 136 0 0 8
1 2 136 1402 112 89 0 0 146 121 0 0 81 2 121 1403 112 105 0 0 136 389 0 0 15 454
 1170 0 452 318 0 81 1 447 1537 320 179 458 0 443 459 460 15 449 1048 0 160 179
 461 17 160 0 449 160 160 0 462 152 0 0 +15 461 1049 0 463 179 0 17 463 0 461 46
3 463 0 197 193 0 0 -17 197 0 421 197 197 0 463 193 0 0 +15 421 999 0 197 340 40
7 17 462 0 368 462 462 0 160 152 0 0 -15 368 969 0 462 169 37 80 1 320 464 465 9
000 1 1 1 1 1 1 1 1 0 FFFFTFTFFFFFFF1 81 1 458 1453 466 179 467 447 446 468 469
 81 1 459 1538 320 178 470 0 447 471 472 82 255 1 460 1276117359 14 178 1072 459
 ?326 173 385 5 174 -0 0 326 173 22 81 1 470 1455 466 178 473 459 468 474 475 81
 1 471 1539 320 326 474 0 459 0 476 82 1 472 1267204463 14 326 1076 471 ?318 178
 394 5 164 -0 0 318 178 22 81 1 474 1456 466 326 477 471 470 478 479 82 1 476 12
66614639 80 1 466 0 480 8001 0 0 0 0 3 5 0 0 0 FFFFTFTFFFFFFF2 81 2 477 1291 481
 326 0 474 473 482 0 0 81 1 478 1457 466 318 482 325 474 321 483 83 255 3 479 .8
98039215686275 .917647058823529 .929411764705882 81 2 482 1293 481 318 0 478 477
 484 0 0 81 1 325 1517 320 318 478 0 322 328 485 81 1 321 1458 466 316 484 317 4
78 486 487 83 3 483 .898039215686275 .917647058823529 .929411764705882 81 2 484
 1295 481 316 0 321 482 488 0 0 81 1 486 1459 466 18 488 322 321 0 489 83 3 487
 .898039215686275 .917647058823529 .929411764705882 81 2 488 1297 481 18 0 486 4
84 0 0 0 81 1 322 1516 320 18 486 0 317 325 490 83 3 489 .898039215686275 .91764
7058823529 .929411764705882 82 1 490 1291125104 80 2 481 491 492 9000 0 0 0 0 3
 6 0 0 0 FFFFTFFFFFFFFF9 1 79 255 14 492 FACE_ID_2_200182 1 485 1288634736 81 2
 473 1289 481 178 0 470 493 477 0 0 81 2 493 1287 481 173 0 468 467 473 0 0 81 1
 468 1454 466 173 493 177 458 470 494 81 2 467 1285 481 179 0 458 495 493 0 0 81
 2 495 1283 481 181 0 446 496 467 0 0 81 1 446 1452 466 181 495 443 442 458 497
 81 2 496 1281 481 313 0 442 498 495 0 0 81 1 442 1451 466 313 496 441 499 446 5
00 81 2 498 1279 481 437 0 499 501 496 0 0 81 1 499 1450 466 437 498 439 502 442
 503 81 2 501 1277 481 433 0 502 504 498 0 0 81 1 502 1449 466 433 501 436 505 4
99 506 81 2 504 1275 481 429 0 505 507 501 0 0 81 1 505 1448 466 429 504 432 508
 502 509 81 2 507 1273 481 425 0 508 510 504 0 0 81 1 508 1447 466 425 507 428 5
11 505 512 81 2 510 1271 481 417 0 511 513 507 0 0 81 1 511 1446 466 417 510 424
 514 508 515 81 2 513 1269 481 412 0 514 516 510 0 0 81 1 514 1445 466 412 513 4
15 414 511 517 81 2 516 1267 481 410 0 414 518 513 0 0 81 1 414 1444 466 410 516
 411 519 514 520 81 2 518 1265 481 340 0 519 521 516 0 0 81 1 519 1443 466 340 5
18 420 522 414 523 81 2 521 1263 481 351 0 522 524 518 0 0 81 1 522 1442 466 351
 521 354 353 519 525 81 2 524 1261 481 349 0 353 526 521 0 0 81 1 353 1441 466 3
49 524 350 527 522 528 81 2 526 1259 481 108 0 527 529 524 0 0 81 1 527 1440 466
 108 526 348 530 353 531 81 2 529 1257 481 85 0 530 532 526 0 0 81 1 530 1439 46
6 85 529 347 533 527 534 81 2 532 1255 481 343 0 533 535 529 0 0 81 1 533 1438 4
66 343 532 345 536 530 537 81 2 535 1253 481 169 0 536 538 532 0 0 81 1 536 1437
 466 169 535 366 365 533 539 81 2 538 1251 481 335 0 365 540 535 0 0 81 1 365 14
36 466 335 538 363 541 536 542 81 2 540 1249 481 329 0 541 543 538 0 0 81 1 541
 1435 466 329 540 333 332 365 544 81 2 543 1247 481 16 0 332 0 540 0 0 81 1 332
 1434 466 16 543 328 0 541 545 83 3 545 .898039215686275 .917647058823529 .92941
1764705882 81 1 333 1519 320 329 541 0 328 345 546 83 3 544 .898039215686275 .91
7647058823529 .929411764705882 81 1 345 1520 320 343 533 0 333 347 547 82 1 546
 1097204080 81 1 347 1521 320 85 530 0 345 348 548 82 1 547 -530448042 81 1 348
 1522 320 108 527 0 347 350 549 82 1 548 -530316970 82 1 549 -530185898 83 3 542
 .898039215686275 .917647058823529 .929411764705882 81 1 366 1526 320 169 536 0
 363 411 550 83 3 539 .898039215686275 .917647058823529 .929411764705882 82 1 55
0 -1139408529 83 3 537 .898039215686275 .917647058823529 .929411764705882 83 3 5
34 .898039215686275 .917647058823529 .929411764705882 83 3 531 .898039215686275
 .917647058823529 .929411764705882 83 3 528 .898039215686275 .917647058823529 .9
29411764705882 81 1 354 1524 320 351 522 0 350 363 551 83 3 525 .898039215686275
 .917647058823529 .929411764705882 82 1 551 -1136590481 81 1 420 1529 320 340 51
9 0 415 424 552 83 3 523 .898039215686275 .917647058823529 .929411764705882 81 1
 415 1528 320 412 514 0 411 420 553 81 1 424 1530 320 417 511 0 420 428 554 82 1
 552 -1138556561 81 1 428 1531 320 425 508 0 424 432 555 82 1 554 1159201132 81
 1 432 1532 320 429 505 0 428 436 556 82 1 555 1143210348 81 1 436 1533 320 433
 502 0 432 439 557 82 1 556 1127219564 81 1 439 1534 320 437 499 0 436 441 558 8
2 1 557 1111228780 82 1 558 1218183536 82 1 553 1092288875 83 3 520 .89803921568
6275 .917647058823529 .929411764705882 83 3 517 .898039215686275 .91764705882352
9 .929411764705882 83 3 515 .898039215686275 .917647058823529 .929411764705882 8
3 3 512 .898039215686275 .917647058823529 .929411764705882 83 3 509 .89803921568
6275 .917647058823529 .929411764705882 83 3 506 .898039215686275 .91764705882352
9 .929411764705882 83 3 503 .898039215686275 .917647058823529 .929411764705882 8
3 3 500 .898039215686275 .917647058823529 .929411764705882 83 3 497 .89803921568
6275 .917647058823529 .929411764705882 81 1 177 1514 320 173 468 0 0 317 559 83
 3 494 .898039215686275 .917647058823529 .929411764705882 82 1 559 1276707183 79
 15 480 SDL/TYSA_COLOUR51 164 1086 0 326 0 174 560 +-.108633291463055 .084142507
3072396 .00635 0 -1 0 .0056 0 0 -1 141 560 153 560 560 164 83 3 475 .89803921568
6275 .917647058823529 .929411764705882 83 3 469 .898039215686275 .91764705882352
9 .929411764705882 79 14 465 SWEntUnchanged82 1 448 1186201968 82 1 444 12022582
88 15 440 1155 0 24 437 561 17 24 0 440 24 24 0 562 10 0 0 +15 561 783 0 563 437
 0 17 563 0 561 563 563 0 213 210 0 0 -17 213 0 564 213 213 0 563 210 0 0 +15 56
4 760 0 213 16 565 15 565 678 0 566 16 567 17 566 0 565 566 566 0 217 214 0 0 -1
5 567 643 0 568 16 569 17 568 0 567 568 568 0 225 222 0 0 -15 569 597 0 570 16 5
71 17 570 0 569 570 570 0 232 229 0 0 -15 571 540 0 572 16 98 17 572 0 571 572 5
72 0 240 237 0 0 -17 240 0 573 240 240 0 572 237 0 0 +15 573 576 0 240 417 0 17
 232 0 574 232 232 0 570 229 0 0 +15 574 622 0 232 425 0 17 225 0 575 225 225 0
 568 222 0 0 +15 575 668 0 225 429 0 17 217 0 576 217 217 0 566 214 0 0 +15 576
 714 0 217 433 0 17 562 0 577 562 562 0 24 10 0 0 -15 577 1196 0 562 18 0 15 438
 713 0 578 433 576 17 578 0 438 578 578 0 221 218 0 0 -17 221 0 579 221 221 0 57
8 218 0 0 +15 579 690 0 221 329 580 15 580 633 0 228 329 581 17 228 0 580 228 22
8 0 582 226 0 0 +15 581 587 0 236 329 583 17 236 0 581 236 236 0 584 233 0 0 +15
 583 552 0 244 329 358 17 244 0 583 244 244 0 585 241 0 0 +17 585 0 426 585 585
 0 244 241 0 0 -15 426 575 0 585 417 573 17 584 0 430 584 584 0 236 233 0 0 -15
 430 621 0 584 425 574 17 582 0 434 582 582 0 228 226 0 0 -15 434 667 0 582 429
 575 15 418 505 0 586 412 587 17 586 0 418 586 586 0 252 249 0 0 -15 587 506 0 2
48 412 0 17 248 0 587 248 248 0 588 245 0 0 +17 588 0 101 588 588 0 248 245 0 0
 -15 101 486 0 588 16 0 17 252 0 359 252 252 0 586 249 0 0 +15 359 478 0 252 329
 0 82 1 416 1071055210 17 30 0 28 26 403 395 262 259 0 31 -17 42 0 98 87 408 27
 38 116 0 64 -29 384 1097 0 377 380 393 -.1065115883683438 .0959189383172865 .00
874549075930039 29 380 1098 0 372 0 384 -.1065115883683438 .0959189383172865 .00
3954509240699615 81 2 212 1391 112 210 0 0 257 391 0 0 81 2 113 1393 112 226 0 0
 391 109 0 0 81 2 257 1390 112 255 0 0 139 212 0 0 81 2 139 1389 112 137 0 0 282
 257 0 0 81 2 282 1388 112 280 0 0 239 139 0 0 81 2 239 1387 112 237 0 0 251 282
 0 0 81 2 251 1386 112 249 0 0 159 239 0 0 81 2 159 1385 112 152 0 0 261 251 0 0
 81 2 261 1384 112 259 0 0 115 159 0 0 81 2 115 1383 112 110 0 0 148 261 0 0 81
 2 148 1382 112 122 0 0 231 115 0 0 81 2 231 1381 112 229 0 0 235 148 0 0 81 2 2
35 1380 112 233 0 0 309 231 0 0 15 383 1044 0 589 173 0 17 589 0 383 589 589 0 2
01 198 0 0 -17 201 0 356 201 201 0 589 198 0 0 +15 356 1006 0 201 351 409 82 1 3
67 -1139539601 17 92 0 91 74 57 51 90 132 0 131 -82 1 355 -530054826 15 338 794
 0 209 16 564 17 209 0 338 209 209 0 590 206 0 0 +17 590 0 314 590 590 0 209 206
 0 0 -15 314 827 0 590 313 0 15 336 1143 0 302 329 299 17 302 0 336 302 302 0 59
1 296 0 0 +15 299 1137 0 295 329 592 15 592 1131 0 305 329 579 17 305 0 592 305
 305 0 593 297 0 0 +17 593 0 324 593 593 0 305 297 0 0 -15 324 1195 0 593 18 577
 17 591 0 327 591 591 0 302 296 0 0 -15 327 1169 0 591 318 454 82 1 334 10977939
01 52 171 1175 0 318 154 19 0 --.217819455465032 .0533049930778708 .003000000000
02506 0 0 -1 .0033 .707106781186551 .707106781186544 -1 0 0 17 300 0 319 300 300
 0 295 294 0 0 -82 1 323 1289879920 81 2 301 1419 112 296 0 0 271 278 0 0 81 2 2
71 1418 112 268 0 0 23 301 0 0 81 2 278 1420 112 269 0 0 301 243 0 0 81 2 243 14
21 112 241 0 0 278 224 0 0 81 2 224 1422 112 222 0 0 243 143 0 0 81 2 143 1423 1
12 95 0 0 224 134 0 0 81 2 23 1417 112 10 0 0 208 271 0 0 81 2 208 1416 112 206
 0 0 285 23 0 0 79 19 291 EDGE_PERM_ID_2_2003141 172 153 594 595 154 141 594 184
 595 172 154 141 595 149 172 594 154 40 13 165 0 1 13 .001653983074530565 .38073
9874292226 ??-.1065115883683438 .0959189383172865 .0115325067272406 -.1102120985
171342 .0890870010292184 .01172283614918506 -.1116349996053536 .0871378325045064
 .01107755203339514 -.1130242681073504 .0854580679459386 .00982553220518139 -.11
37745858527304 .0846271065134037 .00856970538556185 -.1141598800557874 .08421892
42713953 .00725378013182386 -.1142080964849196 .0841686857485514 .00581938811906
132 -.1139406523005464 .084449692342524 .00456340521083791 -.1134097630432006 .0
850249952260786 .003426762198509935 -.1123212779146204 .08628352395993 .00213588
610345316 -.1105228099442052 .0886386312896564 .00107840442471238 -.107802398750
552 .0931365149151245 .000811984353551347 -.1065115883683438 .0959189383172866 .
001167493272759396 41 1 166 L?-.1065115883683438 .0959189383172865 .011532506727
2406 41 1 167 L?-.1065115883683438 .0959189383172866 .001167493272759396 204 52
 168 4 3.53558894867929 .0011674932727594 2.75301169056053 -.01177643101004694 3
.74041412795401 .000977163850814937 3.42739759453617 -.00494449372197878 3.80393
2092240705 .00162244796660486 3.707307358844895 -.00299532519726682 3.8613040109
96835 .00287446779481861 4.04284210944029 -.001315560638699032 3.890767875734675
 .00413029461443815 4.30482288850589 -.000484599206164116 3.90553921914486 .0054
4621986817614 4.55029072509138 -764169641556539e-19 3.907371662712065 .006880611
88093868 4.80728345806278 -2617844131175275e-20 3.89716288625383 .00813659478916
209 5.03709985620815 -.000307185035284388 3.876561833290935 .00927323780149006 5
.2615909830302 -.00088248791883902 3.832770454375115 .01056411389654684 5.564269
72989998 -.00214101665269044 3.75476967753758 .01162159557528762 5.9390168514717
6 -.004496123982416805 3.61632819200414 .01188801564644864 .1489235653592542 -.0
0899400760788487 3.53558894867929 .0115325067272406 .388580963029266 -.011776431
01004694 19 17 121 0 1 0 9 5 S0 74 4 CI16 index_map_offset0 0 1 dCCZ20 15 11 0 0
 596 597 471 598 599 600 13 488 293 486 2 0 0 0 0 0 0 0 0 0 81 2 596 149 601 1 0
 597 0 0 0 602 81 2 597 153 603 1 596 598 0 0 0 604 81 1 598 1215 605 1 597 599
 0 0 606 81 2 599 1216 607 1 598 600 0 0 0 0 81 2 600 1217 608 1 599 13 0 0 609
 0 81 2 13 1244 610 1 600 2 0 0 0 611 80 2 610 612 613 9000 0 0 0 0 3 5 0 0 0 FF
TFFFFFFFFFFF9 1 82 1 611 1 79 24 613 BODY_IN_LIGHTWEIGHT_PERM80 2 608 614 615 80
04 0 0 0 0 3 5 0 0 0 FFTFFFFFFFFFFF2 3 83 1 609 27e2 79 16 615 SDL/TYSA_DENSITY8
0 2 607 616 617 9000 0 0 0 0 3 5 0 0 0 FFTFFFFFFFFFFF9 1 79 16 617 BODY_RECIPE_2
00180 1 605 618 619 9000 1 1 1 1 1 1 1 1 0 FFTFFFFFFFFFFF1 82 1 606 47914 79 10
 619 BODY_MATCH80 2 603 620 621 9000 0 0 0 0 3 5 0 0 0 FFTFFFFFFFFFFF9 1 82 1 60
4 134 79 30 621 LAST_BODY_MODIFYING_FEATURE_ID80 2 601 622 623 9000 0 0 0 0 3 5
 0 0 0 FFTFFFFFFFFFFT9 1 82 1 602 221 79 19 623 ENT_TIME_STAMP_200180 2 12 112 6
24 9000 0 0 0 0 3 5 0 0 0 FFTFFFFFFFFFFF9 1 82 1 14 115 79 12 624 ATOM_ID_20011
 0 
